<svg width="32" height="32" viewBox="0 0 32 32" fill="none" xmlns="http://www.w3.org/2000/svg">
<circle cx="16" cy="16" r="16" fill="#FFEBC1"/>
<path fill-rule="evenodd" clip-rule="evenodd" d="M13.1358 9.09442C13.8766 9.06031 14.1129 9.05273 16 9.05273C17.8872 9.05273 18.1234 9.06094 18.8636 9.09442C19.6038 9.12789 20.1091 9.246 20.5512 9.41716C21.0141 9.5921 21.4341 9.86558 21.7815 10.2193C22.1352 10.566 22.408 10.9854 22.5823 11.4489C22.7541 11.8911 22.8716 12.3963 22.9057 13.1353C22.9398 13.8774 22.9474 14.1136 22.9474 16.0001C22.9474 17.8873 22.9392 18.1235 22.9057 18.8643C22.8722 19.6033 22.7541 20.1085 22.5823 20.5506C22.408 21.0143 22.1347 21.4343 21.7815 21.7816C21.4341 22.1353 21.0141 22.4081 20.5512 22.5824C20.1091 22.7542 19.6038 22.8717 18.8649 22.9058C18.1234 22.9399 17.8872 22.9475 16 22.9475C14.1129 22.9475 13.8766 22.9393 13.1358 22.9058C12.3969 22.8723 11.8916 22.7542 11.4495 22.5824C10.9859 22.4081 10.5658 22.1348 10.2185 21.7816C9.86509 21.4346 9.59158 21.0148 9.41706 20.5513C9.24591 20.1092 9.12843 19.6039 9.09433 18.8649C9.06022 18.1228 9.05264 17.8866 9.05264 16.0001C9.05264 14.1129 9.06085 13.8767 9.09433 13.1365C9.1278 12.3963 9.24591 11.8911 9.41706 11.4489C9.59184 10.9854 9.86556 10.5656 10.2192 10.2186C10.5659 9.86526 10.9856 9.59175 11.4489 9.41716C11.891 9.246 12.3962 9.12852 13.1352 9.09442H13.1358ZM18.8074 10.3449C18.0747 10.3115 17.855 10.3045 16 10.3045C14.1451 10.3045 13.9253 10.3115 13.1926 10.3449C12.515 10.3759 12.1474 10.4889 11.9023 10.5843C11.5783 10.7106 11.3465 10.8603 11.1034 11.1035C10.8729 11.3277 10.6955 11.6007 10.5842 11.9024C10.4889 12.1475 10.3758 12.5151 10.3449 13.1927C10.3114 13.9254 10.3044 14.1452 10.3044 16.0001C10.3044 17.8551 10.3114 18.0748 10.3449 18.8075C10.3758 19.4852 10.4889 19.8527 10.5842 20.0978C10.6954 20.3991 10.8729 20.6725 11.1034 20.8967C11.3276 21.1273 11.6011 21.3047 11.9023 21.4159C12.1474 21.5113 12.515 21.6243 13.1926 21.6553C13.9253 21.6887 14.1444 21.6957 16 21.6957C17.8556 21.6957 18.0747 21.6887 18.8074 21.6553C19.4851 21.6243 19.8526 21.5113 20.0977 21.4159C20.4217 21.2896 20.6535 21.1399 20.8966 20.8967C21.1272 20.6725 21.3046 20.3991 21.4158 20.0978C21.5112 19.8527 21.6242 19.4852 21.6552 18.8075C21.6886 18.0748 21.6956 17.8551 21.6956 16.0001C21.6956 14.1452 21.6886 13.9254 21.6552 13.1927C21.6242 12.5151 21.5112 12.1475 21.4158 11.9024C21.2895 11.5784 21.1398 11.3466 20.8966 11.1035C20.6724 10.873 20.3994 10.6956 20.0977 10.5843C19.8526 10.4889 19.4851 10.3759 18.8074 10.3449ZM15.1126 18.1418C15.6082 18.3481 16.16 18.3759 16.6739 18.2206C17.1877 18.0652 17.6316 17.7363 17.9299 17.2899C18.2281 16.8436 18.3622 16.3076 18.3091 15.7734C18.256 15.2393 18.0192 14.7401 17.639 14.3612C17.3966 14.1189 17.1035 13.9335 16.7809 13.8181C16.4582 13.7027 16.114 13.6603 15.773 13.694C15.4319 13.7276 15.1026 13.8364 14.8087 14.0126C14.5148 14.1888 14.2636 14.4279 14.0733 14.7129C13.8829 14.9978 13.758 15.3213 13.7077 15.6603C13.6574 15.9992 13.6828 16.3451 13.7822 16.6731C13.8817 17.001 14.0525 17.3028 14.2826 17.5568C14.5126 17.8107 14.7961 18.0105 15.1126 18.1418ZM13.475 13.4751C13.8066 13.1435 14.2002 12.8804 14.6335 12.701C15.0667 12.5215 15.5311 12.4291 16 12.4291C16.469 12.4291 16.9333 12.5215 17.3666 12.701C17.7998 12.8804 18.1935 13.1435 18.5251 13.4751C18.8567 13.8066 19.1197 14.2003 19.2992 14.6336C19.4786 15.0668 19.571 15.5312 19.571 16.0001C19.571 16.469 19.4786 16.9334 19.2992 17.3667C19.1197 17.7999 18.8567 18.1936 18.5251 18.5252C17.8554 19.1948 16.9471 19.5711 16 19.5711C15.0529 19.5711 14.1446 19.1948 13.475 18.5252C12.8053 17.8555 12.429 16.9472 12.429 16.0001C12.429 15.053 12.8053 14.1447 13.475 13.4751ZM20.363 12.9609C20.4451 12.8834 20.5109 12.7902 20.5564 12.6868C20.6019 12.5834 20.6262 12.472 20.6279 12.359C20.6295 12.2461 20.6085 12.1339 20.566 12.0292C20.5235 11.9246 20.4605 11.8295 20.3806 11.7496C20.3007 11.6697 20.2057 11.6067 20.101 11.5642C19.9963 11.5218 19.8842 11.5007 19.7712 11.5024C19.6583 11.504 19.5468 11.5283 19.4434 11.5738C19.34 11.6193 19.2468 11.6851 19.1693 11.7673C19.0185 11.9271 18.936 12.1393 18.9392 12.359C18.9424 12.5787 19.0311 12.7884 19.1864 12.9438C19.3418 13.0991 19.5515 13.1878 19.7712 13.191C19.9909 13.1942 20.2032 13.1117 20.363 12.9609Z" fill="#8E3200"/>
</svg>
