<svg width="32" height="32" viewBox="0 0 32 32" fill="none" xmlns="http://www.w3.org/2000/svg">
<circle cx="16" cy="16" r="16" fill="#FFEBC1"/>
<path d="M22.7736 12.4299L16.6363 9.39766C16.4383 9.30051 16.2206 9.25 16 9.25C15.7794 9.25 15.5617 9.30051 15.3637 9.39766L9.22645 12.4299C8.89598 12.5902 8.61737 12.8404 8.42256 13.1518C8.22775 13.4632 8.12463 13.8232 8.125 14.1905V20.6807C8.125 21.7663 9.01867 22.6494 10.1173 22.6494H21.8827C22.9813 22.6494 23.875 21.7663 23.875 20.6807V14.1905C23.8754 13.8232 23.7723 13.4632 23.5774 13.1518C23.3826 12.8404 23.104 12.5902 22.7736 12.4299ZM15.8727 10.4038C15.9123 10.3844 15.9559 10.3743 16 10.3743C16.0441 10.3743 16.0877 10.3844 16.1273 10.4038L22.082 13.345L16.0352 16.3333C15.9955 16.3527 15.952 16.3628 15.9079 16.3628C15.8638 16.3628 15.8202 16.3527 15.7806 16.3333L9.82481 13.3918L15.8727 10.4038Z" fill="#8E3200"/>
</svg>
